<svg xmlns="http://www.w3.org/2000/svg" viewBox="0 0 64 64" width="64" height="64">
  <defs>
    <linearGradient id="g" x1="0" y1="0" x2="1" y2="1">
      <stop offset="0%" stop-color="#2563eb"/>
      <stop offset="100%" stop-color="#22c55e"/>
    </linearGradient>
  </defs>
  <rect x="2" y="2" width="60" height="60" rx="12" fill="url(#g)"/>
  <g fill="#ffffff">
    <path d="M20 28c0-6.627 5.373-12 12-12s12 5.373 12 12v2h-6v-2c0-3.309-2.691-6-6-6s-6 2.691-6 6v2h-6v-2z"/>
    <path d="M14 36c0-1.105.895-2 2-2h32c1.105 0 2 .895 2 2v8c0 1.105-.895 2-2 2H16c-1.105 0-2-.895-2-2v-8z"/>
  </g>
</svg>

